<?xml version="1.0" encoding="UTF-8" standalone="no"?>
<!-- Generator: Adobe Illustrator 13.0.0, SVG Export Plug-In . SVG Version: 6.00 Build 14948)  -->

<svg
   xmlns:dc="http://purl.org/dc/elements/1.1/"
   xmlns:cc="http://creativecommons.org/ns#"
   xmlns:rdf="http://www.w3.org/1999/02/22-rdf-syntax-ns#"
   xmlns:svg="http://www.w3.org/2000/svg"
   xmlns="http://www.w3.org/2000/svg"
   xmlns:sodipodi="http://sodipodi.sourceforge.net/DTD/sodipodi-0.dtd"
   xmlns:inkscape="http://www.inkscape.org/namespaces/inkscape"
   version="1.1"
   id="Layer_1"
   x="0px"
   y="0px"
   width="487.932px"
   height="490.305px"
   viewBox="0 0 487.932 490.305"
   enable-background="new 0 0 487.932 490.305"
   xml:space="preserve"
   inkscape:version="0.47pre3 r22311"
   sodipodi:docname="logo.svg"><metadata
   id="metadata3033"><rdf:RDF><cc:Work
       rdf:about=""><dc:format>image/svg+xml</dc:format><dc:type
         rdf:resource="http://purl.org/dc/dcmitype/StillImage" /><dc:title></dc:title></cc:Work></rdf:RDF></metadata><defs
   id="defs3031"><inkscape:perspective
   sodipodi:type="inkscape:persp3d"
   inkscape:vp_x="0 : 245.1525 : 1"
   inkscape:vp_y="0 : 1000 : 0"
   inkscape:vp_z="487.93201 : 245.1525 : 1"
   inkscape:persp3d-origin="243.966 : 163.435 : 1"
   id="perspective3035" />
	
	
	
		
	
		
	
	
	
	
	
	
	
	
	
	
	
	
	
	
	
	
	
	
	
	
	
	
	
	
	
	
	
	
	
<inkscape:perspective
   id="perspective6041"
   inkscape:persp3d-origin="56.25 : 37.5 : 1"
   inkscape:vp_z="112.5 : 56.25 : 1"
   inkscape:vp_y="0 : 1000 : 0"
   inkscape:vp_x="0 : 56.25 : 1"
   sodipodi:type="inkscape:persp3d" /><inkscape:perspective
   id="perspective6109"
   inkscape:persp3d-origin="250 : 166.66667 : 1"
   inkscape:vp_z="500 : 250 : 1"
   inkscape:vp_y="0 : 1000 : 0"
   inkscape:vp_x="0 : 250 : 1"
   sodipodi:type="inkscape:persp3d" /><inkscape:perspective
   id="perspective10"
   inkscape:persp3d-origin="372.04724 : 350.78739 : 1"
   inkscape:vp_z="744.09448 : 526.18109 : 1"
   inkscape:vp_y="0 : 1000 : 0"
   inkscape:vp_x="0 : 526.18109 : 1"
   sodipodi:type="inkscape:persp3d" /></defs><sodipodi:namedview
   pagecolor="#ffffff"
   bordercolor="#666666"
   borderopacity="1"
   objecttolerance="10"
   gridtolerance="10"
   guidetolerance="10"
   inkscape:pageopacity="0"
   inkscape:pageshadow="2"
   inkscape:window-width="1266"
   inkscape:window-height="736"
   id="namedview3029"
   showgrid="false"
   inkscape:zoom="0.96266611"
   inkscape:cx="243.966"
   inkscape:cy="252.72613"
   inkscape:window-x="9"
   inkscape:window-y="6"
   inkscape:window-maximized="0"
   inkscape:current-layer="layer1" />

<g
   inkscape:label="Layer 1"
   id="layer1"
   transform="matrix(0.36675039,-0.2760073,0.2760073,0.36675039,84.450879,111.83997)"><g
     id="g6353"
     transform="translate(25.352809,-3.5792567)"
     inkscape:export-filename="/Users/preisl/Documents/Workspace/CompassNavi/res/drawable/logo.png"
     inkscape:export-xdpi="11.61"
     inkscape:export-ydpi="11.61"><path
       stroke-miterlimit="10"
       d="m 245.45497,499.58611 c -21.47437,53.25125 -65.97392,88.05912 -122.8249,96.08832 -56.856202,8.02528 -109.248332,-13.1052 -144.625372,-58.3303 -35.379661,-45.22161 -43.275725,-101.16258 -21.799612,-154.41252 21.476112,-53.24994 65.97261,-88.05738 122.825332,-96.08527 56.854462,-8.02659 109.248332,13.1052 144.626682,58.32855 35.37835,45.22336 43.27573,101.16259 21.79787,154.41122 l 0,0"
       id="path2963"
       style="fill:none;stroke:#000000;stroke-width:1.28364527;stroke-linejoin:round;stroke-miterlimit:10" /><path
       stroke-miterlimit="10"
       d="M 386.47363,556.45907 C 322.8853,714.13622 143.30609,790.49559 -14.369748,726.90551 -172.04602,663.31239 -248.40539,483.73318 -184.81531,326.05734 -121.22524,168.3815 58.353966,92.022131 216.03155,155.61351 c 157.67453,63.59182 234.0339,243.17103 170.44208,400.84556 l 0,0 z"
       id="path2969"
       style="fill:none;stroke:#000000;stroke-width:7.68008518;stroke-linejoin:round;stroke-miterlimit:10;stroke-dasharray:15.36017088, 15.36017088" /><path
       clip-rule="evenodd"
       d="m 380.84461,570.42046 c -7.86442,-3.17282 -11.67055,-12.12584 -8.50078,-19.98982 3.16978,-7.86398 12.12759,-11.66924 19.98809,-8.50209 7.86441,3.17283 11.67403,12.12847 8.50425,19.99245 -3.17151,7.86267 -12.12584,11.67055 -19.99156,8.49946 l 0,0 z"
       id="path2971"
       style="fill-rule:evenodd" /><path
       stroke-miterlimit="10"
       d="m 380.84461,570.42046 c -7.86442,-3.17282 -11.67055,-12.12584 -8.50078,-19.98982 3.16978,-7.86398 12.12759,-11.66924 19.98809,-8.50209 7.86441,3.17283 11.67403,12.12847 8.50425,19.99245 -3.17151,7.86267 -12.12584,11.67055 -19.99156,8.49946 l 0,0 z"
       id="path2973"
       style="fill:none;stroke:#000000;stroke-width:3.84004259;stroke-miterlimit:10" /><path
       clip-rule="evenodd"
       d="m -28.329404,721.2778 c 3.171086,-7.86573 12.125411,-11.6736 19.9880836,-8.50209 7.86572334,3.17109 11.6705509,12.12584 8.50077471,19.98983 -3.16977621,7.86398 -12.12758331,11.66924 -19.98808431,8.50208 -7.864413,-3.17282 -11.672722,-12.1302 -8.500774,-19.98982 l 0,0 z"
       id="path2975"
       style="fill-rule:evenodd" /><path
       stroke-miterlimit="10"
       d="m -28.329404,721.2778 c 3.171086,-7.86573 12.125411,-11.6736 19.9880836,-8.50209 7.86572334,3.17109 11.6705509,12.12584 8.50077471,19.98983 -3.16977621,7.86398 -12.12758331,11.66924 -19.98808431,8.50208 -7.864413,-3.17282 -11.672722,-12.1302 -8.500774,-19.98982 l 0,0 z"
       id="path2977"
       style="fill:none;stroke:#000000;stroke-width:3.84004259;stroke-miterlimit:10" /><path
       clip-rule="evenodd"
       d="m -179.18586,312.09899 c 7.86398,3.16978 11.67229,12.12716 8.50078,19.98983 -3.17152,7.86267 -12.12716,11.67229 -19.98983,8.50077 -7.86267,-3.17151 -11.66924,-12.12758 -8.50077,-19.98982 3.16846,-7.86224 12.12715,-11.67229 19.98982,-8.50078 l 0,0 z"
       id="path2979"
       style="fill-rule:evenodd" /><path
       stroke-miterlimit="10"
       d="m -179.18586,312.09899 c 7.86398,3.16978 11.67229,12.12716 8.50078,19.98983 -3.17152,7.86267 -12.12716,11.67229 -19.98983,8.50077 -7.86267,-3.17151 -11.66924,-12.12758 -8.50077,-19.98982 3.16846,-7.86224 12.12715,-11.67229 19.98982,-8.50078 l 0,0 z"
       id="path2981"
       style="fill:none;stroke:#000000;stroke-width:3.84004259;stroke-miterlimit:10" /><path
       clip-rule="evenodd"
       d="m 229.99163,161.24428 c -3.17151,7.86267 -12.12715,11.67229 -19.98982,8.50078 -7.86267,-3.17152 -11.67229,-12.12716 -8.50077,-19.98983 3.17151,-7.86267 12.12715,-11.67229 19.98982,-8.50077 7.86267,3.17151 11.67229,12.12715 8.50077,19.98982 l 0,0 z"
       id="path2983"
       style="fill-rule:evenodd" /><path
       stroke-miterlimit="10"
       d="m 229.99163,161.24428 c -3.17151,7.86267 -12.12715,11.67229 -19.98982,8.50078 -7.86267,-3.17152 -11.67229,-12.12716 -8.50077,-19.98983 3.17151,-7.86267 12.12715,-11.67229 19.98982,-8.50077 7.86267,3.17151 11.67229,12.12715 8.50077,19.98982 l 0,0 z"
       id="path2985"
       style="fill:none;stroke:#000000;stroke-width:3.84004259;stroke-miterlimit:10" /><path
       stroke-miterlimit="10"
       d="M 357.16964,544.64145 C 300.10287,686.13865 138.95074,754.66438 -2.54994,697.59499 -144.04671,640.53126 -212.57113,479.3774 -155.50436,337.8802 -98.436274,196.38126 62.714537,127.85727 204.21305,184.9223 345.70894,241.99081 414.23293,403.14163 357.16964,544.64145 l 0,0 z"
       id="path2987"
       style="fill:none;stroke:#000000;stroke-width:6.89229488;stroke-linejoin:round;stroke-miterlimit:10" /><polygon
       clip-rule="evenodd"
       points="213.11,133.465 253.066,228.791 355.6,215.731 355.6,215.731 260.273,255.688 273.334,358.22 233.377,262.894 130.844,275.954 226.17,235.998 "
       id="polygon2989"
       style="fill:#6e6e6e;fill-rule:evenodd"
       transform="matrix(1.740745,1.3100418,-1.3100418,1.740745,-0.49241391,-305.31905)" /><polygon
       clip-rule="evenodd"
       points="333.246,89.917 270.611,238.504 399.148,335.866 399.148,335.866 250.561,273.231 153.198,401.769 215.833,253.182 87.296,155.818 235.883,218.454 "
       id="polygon2991"
       style="fill-rule:evenodd"
       transform="matrix(1.740745,1.3100418,-1.3100418,1.740745,-0.49241391,-305.31905)" /><polygon
       stroke-miterlimit="10"
       points="333.246,89.917 270.611,238.504 399.148,335.866 399.148,335.866 250.561,273.231 153.198,401.769 215.833,253.182 87.296,155.818 235.883,218.454 "
       id="polygon2993"
       style="fill:none;stroke:#000000;stroke-width:2.09050012;stroke-linejoin:round;stroke-miterlimit:10"
       transform="matrix(1.740745,1.3100418,-1.3100418,1.740745,-0.49241391,-305.31905)" /><path
       stroke-miterlimit="10"
       d="m 202.1253,293.82407 c 2.88181,-2.33292 14.75677,7.3728 12.15158,9.48309 -19.41944,19.60486 -23.21365,27.49788 -23.21365,27.49788 l -9.43565,-7.40369 c -1.16437,2.45296 12.87876,-13.51156 20.49772,-29.57728 l 0,0 m 60.14754,70.39982 c 3.66454,-0.57958 9.09533,13.76516 5.78209,14.28737 -26.62215,7.26677 -33.8533,12.20515 -33.8533,12.20515 l -4.46965,-11.12925 c -2.23694,1.54488 17.90826,-5.26023 32.54086,-15.36327 l 0,0 m 16.88874,91.04125 c 3.4627,1.32987 0.99466,16.4677 -2.13579,15.26518 -26.68926,-7.01685 -35.4188,-6.35541 -35.4188,-6.35541 l 1.6936,-11.87335 c -2.70709,0.22038 18.13941,4.39975 35.86099,2.96358 l 0,0 m -30.89371,87.28856 c 2.33466,2.88311 -7.3728,14.75677 -9.48135,12.15289 -19.60661,-19.42075 -27.49788,-23.21366 -27.49788,-23.21366 l 7.40369,-9.43564 c -2.45775,-1.16526 13.51156,12.87876 29.57554,20.49641 l 0,0 m -70.39939,60.15059 c 0.57915,3.66149 -13.76559,9.09228 -14.2878,5.77904 -7.26983,-26.62172 -12.20646,-33.85156 -12.20646,-33.85156 l 11.12925,-4.46965 c -1.54619,-2.2352 5.26066,17.91131 15.36501,32.54217 l 0,0 m -91.041252,16.88874 c -1.328129,3.46401 -16.468131,0.99161 -15.265173,-2.13579 7.016849,-26.68926 6.35541,-35.4188 6.35541,-35.4188 l 11.869861,1.69098 c -0.219067,-2.70883 -4.396269,18.14203 -2.960098,35.86361 l 0,0 M -0.46437837,588.69975 C -3.3444443,591.03398 -15.219844,581.32521 -12.614653,579.21492 6.804786,559.61005 10.597694,551.71877 10.597694,551.71877 l 9.437387,7.40501 c 1.163944,-2.45601 -12.8809277,13.5072 -20.49945937,29.57597 l 0,0 M -60.612354,518.29688 c -3.664102,0.58263 -9.093589,-13.76385 -5.780775,-14.28911 26.620407,-7.26809 33.850247,-12.20472 33.850247,-12.20472 l 4.46965,11.12925 c 2.238684,-1.54357 -17.906518,5.26154 -32.539122,15.36458 l 0,0 m -16.890044,-91.03951 c -3.462699,-1.32987 -0.991616,-16.46813 2.135783,-15.26518 26.687525,7.01554 35.418806,6.35541 35.418806,6.35541 l -1.693603,11.87335 c 2.71014,-0.22081 -18.137672,-4.39844 -35.860986,-2.96358 l 0,0 m 30.895017,-87.2903 c -2.334663,-2.88312 7.372801,-14.75677 9.483088,-12.15158 19.604868,19.41944 27.4961473,23.21234 27.4961473,23.21234 l -7.4036933,9.43565 c 2.456011,1.16394 -13.508507,-12.87919 -29.575542,-20.49641 l 0,0 m 70.401132,-60.14928 c -0.579583,-3.66454 13.763849,-9.09359 14.289109,-5.78078 7.268085,26.62041 12.206458,33.85156 12.206458,33.85156 l -11.129249,4.46965 c 1.543145,2.23563 -5.263277,-17.90783 -15.366318,-32.54043 l 0,0 M 114.835,262.92905 c 1.32987,-3.4627 16.46639,-0.99292 15.26518,2.13578 -7.01685,26.68927 -6.35541,35.41881 -6.35541,35.41881 l -11.87335,-1.6936 c 0.22081,2.71014 4.39844,-18.13767 2.96358,-35.86099 l 0,0"
       id="path2995"
       style="fill:none;stroke:#000000;stroke-width:4.03655481;stroke-linejoin:round;stroke-miterlimit:10" /><polygon
       clip-rule="evenodd"
       points="375.814,318.678 255.789,249.382 255.789,249.382 271.115,245.739 "
       id="polygon2997"
       style="fill:#ffffff;fill-rule:evenodd"
       transform="matrix(1.740745,1.3100418,-1.3100418,1.740745,-0.49241391,-305.31905)" /><polygon
       clip-rule="evenodd"
       points="171.565,377.258 240.861,257.232 240.861,257.232 244.194,273.001 "
       id="polygon2999"
       style="fill:#ffffff;fill-rule:evenodd"
       transform="matrix(1.740745,1.3100418,-1.3100418,1.740745,-0.49241391,-305.31905)" /><polygon
       clip-rule="evenodd"
       points="110.628,173.007 230.654,242.304 230.654,242.304 214.843,245.608 "
       id="polygon3001"
       style="fill:#ffffff;fill-rule:evenodd"
       transform="matrix(1.740745,1.3100418,-1.3100418,1.740745,-0.49241391,-305.31905)" /><polygon
       clip-rule="evenodd"
       points="316.057,113.25 246.76,233.274 246.76,233.274 244.017,216.66 "
       id="polygon3003"
       style="fill:#ffffff;fill-rule:evenodd"
       transform="matrix(1.740745,1.3100418,-1.3100418,1.740745,-0.49241391,-305.31905)" /><path
       clip-rule="evenodd"
       d="m 143.3469,458.40667 c -9.46599,23.46915 -36.19423,34.83331 -59.661632,25.36863 -23.469145,-9.46599 -34.833307,-36.19423 -25.368627,-59.66163 9.465989,-23.46915 36.195538,-34.83505 59.661629,-25.36863 23.46915,9.46599 34.83331,36.19423 25.36863,59.66163 l 0,0 z"
       id="path3005"
       style="fill:#fffcfc;fill-rule:evenodd" /><path
       stroke-miterlimit="10"
       d="m 143.3469,458.40667 c -9.46599,23.46915 -36.19423,34.83331 -59.661632,25.36863 -23.469145,-9.46599 -34.833307,-36.19423 -25.368627,-59.66163 9.465989,-23.46915 36.195538,-34.83505 59.661629,-25.36863 23.46915,9.46599 34.83331,36.19423 25.36863,59.66163 l 0,0 z"
       id="path3007"
       style="fill:none;stroke:#000000;stroke-width:6.41800833;stroke-linejoin:round;stroke-miterlimit:10" /><path
       d="m 508.98091,238.12831 7.54111,17.7325 -18.74842,44.21618 19.03012,-8.09147 c 2.3175,-0.98528 4.17968,-2.24233 5.58175,-3.77203 1.40207,-1.52971 2.23798,-3.23463 2.50905,-5.11652 0.1629,-1.01715 0.18016,-1.97484 0.0453,-2.87528 -0.13316,-0.89912 -0.45493,-2.09833 -0.97184,-3.59982 l 1.17161,-0.49523 9.30071,21.87609 -1.17161,0.49523 -0.18838,-0.4417 c -1.34987,-3.18083 -3.3958,-5.1759 -6.1243,-5.97777 -2.73241,-0.80754 -6.02414,-0.38639 -9.87952,1.25474 l -31.58213,13.42631 -0.44099,-1.0408 22.95313,-54.77778 -26.2364,11.15626 c -2.54904,1.08642 -4.45901,2.25843 -5.72643,3.51864 -1.26742,1.26021 -2.04374,2.75913 -2.32416,4.49765 -0.20013,1.40358 -0.0554,2.94672 0.43726,4.629 0.23024,0.94764 0.66076,2.25596 1.29852,3.9302 l -1.17161,0.49523 -9.79682,-23.0429 1.16813,-0.49786 c 1.12996,2.30641 2.36585,4.05179 3.70506,5.2396 1.33529,1.18214 2.85272,1.83605 4.54097,1.94776 1.69174,0.11433 3.57034,-0.26602 5.63364,-1.1454 l 24.97452,-10.61716 c 1.54137,-0.65323 2.70144,-1.54979 3.48109,-2.69446 0.78488,-1.14075 1.19057,-2.48778 1.21405,-4.04067 0.0235,-1.55288 -0.35891,-3.25851 -1.148,-5.11207 l -0.2422,-0.56946 1.16683,-0.50701 0,0 z"
       id="path3009" /><path
       d="m -267.48852,615.99695 0.47182,1.1049 -15.14204,6.4395 -0.4705,-1.10665 c 3.08052,-2.87594 5.28715,-5.59429 6.6116,-8.14764 0.91281,-1.83246 1.52144,-3.90203 1.82153,-6.20652 0.30008,-2.30449 0.2775,-4.73457 -0.0747,-7.28458 -0.35223,-2.55001 -1.0227,-4.99597 -2.01884,-7.33528 -0.74178,-1.74978 -1.64917,-3.20703 -2.71566,-4.36956 -1.06517,-1.16427 -2.27639,-2.01854 -3.62886,-2.56194 -0.96014,-0.3872 -1.94757,-0.60407 -2.96143,-0.64452 -1.01256,-0.0422 -1.90865,0.10143 -2.68784,0.43391 -1.47509,0.62676 -2.50828,1.73878 -3.10001,3.33299 -0.30188,0.74895 -0.48692,1.71944 -0.55597,2.90538 -0.0691,1.18593 -0.005,2.65181 0.19014,4.39939 0.19538,1.74758 0.54741,4.15293 1.0552,7.22084 0.0914,0.85678 0.17107,1.43207 0.24771,1.72152 l 0.2791,1.71243 0.41554,2.73398 c 0.69869,4.62943 1.04551,8.0779 1.04047,10.3454 -0.007,2.2662 -0.39846,4.3627 -1.17417,6.28472 -0.54185,1.4736 -1.35402,2.78467 -2.43432,3.92667 -1.08292,1.14548 -2.39071,2.04266 -3.93033,2.6972 -1.51608,0.645 -3.17759,0.96513 -4.98585,0.96216 -1.80825,-0.003 -3.54359,-0.36008 -5.21343,-1.06871 -2.26608,-0.87648 -4.28595,-2.29025 -6.05745,-4.23694 -1.77325,-1.948 -3.28382,-4.3827 -4.52692,-7.31413 -0.86895,-2.04455 -1.48263,-4.05512 -1.83755,-6.02911 -0.35534,-1.97703 -0.53507,-4.49539 -0.54181,-7.55158 -0.0421,-1.97303 -0.13113,-3.45246 -0.26458,-4.44178 -0.13344,-0.98932 -0.36554,-1.87291 -0.69802,-2.6521 -0.63588,-1.49559 -1.56956,-2.59907 -2.80499,-3.30524 -1.23412,-0.70791 -2.65031,-0.92026 -4.24727,-0.63879 l -0.47051,-1.10665 20.42019,-8.68133 0.47181,1.10491 c -3.43809,1.98517 -6.10203,4.84742 -7.99488,8.58718 -1.09299,2.2313 -1.88549,4.82779 -2.38099,7.78685 -0.4968,2.96081 -0.61361,5.89131 -0.3491,8.78975 0.26145,2.89888 0.882,5.49813 1.85817,7.79514 0.86896,2.04455 2.00118,3.77188 3.39666,5.18201 1.39549,1.41013 2.89504,2.33415 4.49997,2.77034 1.60493,0.43619 3.16631,0.33244 4.68413,-0.31124 1.59979,-0.68015 2.77092,-1.93921 3.51118,-3.77065 0.31814,-0.83215 0.51933,-1.82048 0.60531,-2.96368 0.0842,-1.14451 0.0652,-2.56849 -0.0596,-4.26846 -0.12487,-1.69997 -0.39429,-3.99408 -0.79738,-6.88229 l -0.49136,-3.52452 c -0.76959,-5.49533 -1.18765,-9.34914 -1.25678,-11.55794 -0.12492,-2.46075 -0.0558,-4.46192 0.20989,-6.007 0.26441,-1.54334 0.80844,-3.01259 1.63208,-4.40773 1.13142,-2.02513 2.70938,-3.46609 4.73169,-4.32724 2.44526,-1.0391 4.95058,-1.245 7.51859,-0.62117 2.56801,0.62383 4.95612,2.01206 7.1604,4.15902 2.20734,2.14653 3.98855,4.81218 5.34016,7.99433 2.04262,4.80375 2.82519,10.35792 2.34423,16.6599 -0.13477,2.19714 -0.0657,3.62338 0.2117,4.27656 0.70229,1.64645 2.41577,2.31158 5.14393,1.99799 l 0,0 0,0 z"
       id="path3011" /><path
       d="m -70.29984,-11.63641 9.772526,22.980994 -1.142088,0.561077 c -0.817398,-1.866686 -1.657569,-3.1342869 -2.512669,-3.8023545 -0.855101,-0.6680675 -1.801742,-0.7833502 -2.833393,-0.3436586 -1.011156,0.430575 -1.995644,1.072085 -2.949983,1.9271501 l -21.861091,20.305853 26.244164,-0.521933 c 1.834508,-1.65143 3.141679,-2.971704 3.915411,-3.959963 0.773733,-0.988259 1.388609,-2.087889 1.842456,-3.303251 0.478057,-1.098984 0.702397,-2.121698 0.673018,-3.068142 -0.02764,-0.945134 -0.289953,-1.998714 -0.781723,-3.15681 l 1.169869,-0.496544 10.187901,23.961624 -1.169869,0.496545 -0.496544,-1.169869 c -0.80602,-1.896297 -1.755876,-3.235537 -2.846085,-4.015102 -1.091949,-0.780874 -2.247713,-0.911752 -3.468602,-0.390891 -0.821917,0.349406 -1.539911,0.828829 -2.150929,1.437839 l -21.905937,20.55022 27.735209,-0.78222 c 1.483347,-0.0834 2.740845,-0.34494 3.774236,-0.783322 1.580612,-0.672772 2.49791,-1.790205 2.754516,-3.35578 0.255295,-1.563833 -0.133432,-3.645062 -1.161389,-6.242806 l 1.143829,-0.559767 7.541102,17.732494 -1.169869,0.496544 c -0.586344,-1.144744 -1.176619,-2.019781 -1.769513,-2.626851 -0.592895,-0.60707 -1.401928,-1.202296 -2.421431,-1.789589 -2.143574,-1.176937 -5.028471,-1.731136 -8.65557,-1.657805 l -41.178772,1.124356 -0.496544,-1.169868 27.773348,-26.067739 -38.506444,0.845099 -0.52432,-1.234402 29.532336,-27.6369399 c 2.706871,-2.47002851 4.470438,-4.7010894 5.292444,-6.6918728 0.820264,-1.9920933 0.80438,-3.989049 -0.04591,-5.9895573 l -0.470505,-1.106645 1.166818,-0.496113 0,0 z"
       id="path3013" /><path
       d="m 277.4959,795.67776 19.97083,46.97227 -17.09981,7.27286 -0.40454,-0.94793 c 2.62484,-2.1364 4.53616,-3.8609 5.72873,-5.17744 1.19257,-1.31654 2.22377,-2.80634 3.08313,-4.46634 1.01505,-2.00092 1.53106,-3.92206 1.54108,-5.76865 -0.0277,-3.05012 -0.82819,-6.42831 -2.40508,-10.13719 l -3.69807,-8.69445 -20.98789,8.92484 0.99308,2.33973 c 1.4788,3.47691 4.14978,5.60155 8.01122,6.3726 1.98407,0.39978 4.15137,0.4003 6.49579,0.002 1.01241,-0.13515 2.44912,-0.47178 4.31099,-1.01468 l 0.47225,1.10795 -28.95592,12.31343 -0.47225,-1.10795 c 1.44986,-0.91569 2.79254,-1.84114 4.02675,-2.77461 1.23203,-0.93783 2.18944,-1.80422 2.86874,-2.60179 0.68061,-0.7993 1.31001,-1.71896 1.88775,-2.762 1.53198,-2.8907 1.55554,-6.08496 0.0659,-9.58367 l -0.77824,-1.83177 -19.75829,8.39963 3.09257,7.27082 c 0.91323,2.14875 1.88793,4.01657 2.92277,5.60519 1.03616,1.58687 2.16727,2.93164 3.39203,4.02515 1.2252,1.09656 2.61015,2.02432 4.15398,2.78807 2.62612,1.32196 5.48903,1.99594 8.58569,2.02239 1.77468,0.0186 4.0878,-0.16015 6.94066,-0.52713 l 0.49829,1.17118 -18.17725,7.72991 -20.44308,-48.08022 1.14209,-0.56108 0.51218,1.20345 c 2.27743,5.35402 6.11192,6.88188 11.50561,4.58795 l 25.69878,-10.931 c 2.74176,-1.16497 4.48541,-2.67756 5.23705,-4.53861 0.75164,-1.86105 0.54497,-4.16246 -0.62131,-6.90248 l -0.51217,-1.20344 1.17597,-0.49741 0,0 z"
       id="path3015" /><path
       d="m 510.39607,251.94314 c -7.05638,16.82176 -14.11667,33.63785 -21.17174,50.45788 9.87513,-2.28873 9.47314,-14.84482 14.2221,-22.24564 2.89716,-8.4836 8.56684,-16.96656 9.77905,-25.45031 -1.04999,-0.85837 -1.83065,-8.10707 -2.82941,-2.76193 l 0,0 z m 15.98374,34.9192 c -2.06224,2.35257 -0.67718,2.42152 1.74558,2.87605 -0.49184,-0.0566 -1.31113,-5.01126 -1.74558,-2.87605 l 0,0 z m -53.59486,-21.583 c -3.84171,-2.16316 -0.18686,3.93299 0,0 l 0,0 z"
       id="path3017"
       style="fill:#fff6f6" /><path
       d="m -273.70782,616.90609 c -1.01444,-1.80775 -2.33079,2.97391 0,0 l 0,0 z m -14.54081,-33.48155 c -7.58189,-2.21856 -12.54341,6.20021 -10.96121,12.76788 -0.29798,10.55148 5.45358,21.94471 0.91987,31.99422 -0.54797,2.27881 -6.99238,4.1501 -2.39056,3.80692 8.97827,-0.0898 10.78614,-11.23093 8.82621,-18.09378 -0.15615,-9.16182 -6.0182,-19.87202 -0.0984,-28.11491 0.74959,-1.14821 3.57383,-2.12569 3.70406,-2.36033 l 0,0 z m -32.97709,12.75822 c 1.85712,1.02135 2.88436,4.84827 3.53385,0.72084 3.13484,-5.16907 -0.0696,-1.63931 -3.53385,-0.72084 l 0,0 z"
       id="path3019"
       style="fill:#fff6f6" /><path
       d="m -69.45187,-1.3431807 c -8.945199,11.2339613 -21.039048,19.8801947 -31.08777,30.2182307 9.926508,1.43637 14.666574,-9.82935 22.007014,-14.72092 4.069405,-3.012442 7.108,-8.4775363 12.50041,-9.1937064 -1.02634,-1.1977557 -2.35599,-7.927109 -3.419654,-6.3036043 l 0,0 z m 11.541609,25.6047947 c -6.795508,10.283262 -18.752449,18.080928 -27.678251,27.589884 -7.726324,8.230334 9.704518,-0.02585 11.643844,-5.265745 6.6529,-4.383775 10.838102,-13.948465 19.200237,-15.08545 -1.034095,-2.310611 -2.144657,-5.284086 -3.16583,-7.238689 l 0,0 z m 12.716169,30.728681 c 0.01481,1.06363 1.216133,-0.808011 0,0 l 0,0 z"
       id="path3021"
       style="fill:#fff6f6" /><path
       d="m 279.14881,806.66948 c -6.89138,7.64261 -18.53281,8.52844 -27.18632,13.56338 -3.83963,1.59846 -7.93233,3.93898 -12.18143,2.82437 1.28028,11.83466 11.4919,1.53742 18.15094,0.0403 8.02079,-3.41159 16.04636,-6.82231 24.06715,-10.23391 -0.90203,-1.80495 -1.93173,-5.19746 -2.85034,-6.19417 l 0,0 z m 13.00949,31.20846 c -0.006,2.04834 -5.19501,7.32689 -0.42992,4.41537 4.38425,0.54011 0.69927,-5.516 0.42992,-4.41537 l 0,0 z m -21.22767,-3.17652 c -2.6086,-0.58076 -5.04864,-3.24053 -5.24003,0.79267 -4.18458,5.48064 5.31348,-1.20911 5.24003,-0.79267 l 0,0 z m -10.09456,21.77183 c -2.93954,-0.44536 -5.65561,-1.65505 -8.18123,-3.14677 1.48962,7.48778 4.78996,5.54072 8.18123,3.14677 l 0,0 z"
       id="path3023"
       style="fill:#fff6f6" /><path
       clip-rule="evenodd"
       d="m 84.669126,409.93366 c -20.152314,16.41938 -19.852051,39.94731 2.439729,68.49177 0.01565,0.55166 -21.742512,-13.61168 -24.244682,-31.46747 -2.984953,-21.29751 19.638567,-40.4897 21.804953,-37.0243 l 0,0 z"
       id="path3025"
       style="fill:#888888;fill-rule:evenodd" /><path
       clip-rule="evenodd"
       d="m 106.5804,479.84135 c 26.39336,-8.03882 39.93393,-41.37131 26.13659,-65.39901 0.22435,-0.50463 9.59689,13.47187 8.63524,31.47752 -1.38779,25.94124 -33.10441,39.27451 -34.77183,33.92149 l 0,0 z"
       id="path3027"
       style="fill:#888888;fill-rule:evenodd" /><path
       id="path4540"
       d="M 42.000118,236.11288 C 26.742431,209.82167 14.106463,187.23113 13.920184,185.91166 c -0.186279,-1.31946 8.36326,-4.49114 18.998964,-7.04813 65.051208,-15.6395 121.610972,-10.58176 182.880992,16.35379 25.7224,11.3081 67.7168,42.32666 86.18634,63.66033 14.56941,16.82873 26.33225,33.28266 34.68578,48.51871 l 5.85045,10.67068 -55.98467,15.93142 c -30.79158,8.76225 -56.21735,15.97043 -56.50174,16.01814 -0.28434,0.0478 -4.09693,-4.41473 -8.47232,-9.91656 -4.3754,-5.50182 -10.51691,-11.93113 -13.64778,-14.28734 l -5.6925,-4.28404 8.03463,-10.23962 8.0346,-10.23961 -7.23302,-5.44339 -7.233,-5.44338 -8.36718,9.98932 -8.36717,9.98935 -6.90039,-5.19305 -6.90036,-5.19305 11.39051,-44.53518 c 6.2648,-24.49434 11.30305,-45.81186 11.19613,-47.37224 -0.28258,-4.12415 -1.86363,-1.62938 -25.34143,39.98673 -11.66041,20.66887 -21.91344,38.52681 -22.78454,39.6843 -0.87111,1.15751 -5.51179,1.30758 -10.31265,0.33354 l -8.7288,-1.77103 2.52928,-10.86717 c 2.64679,-11.37195 0.26754,-15.58111 -9.67859,-17.12249 -5.89818,-0.91407 -11.69308,5.9763 -10.22625,12.15943 2.71049,11.42553 0.52487,12.90532 -20.398682,13.8111 -11.076005,0.47952 -20.376065,0.64256 -20.666826,0.36233 -0.290768,-0.28017 -13.012174,-22.02046 -28.269844,-48.31167 l 0,0 z"
       style="fill:#fff200;fill-opacity:1" /><path
       id="path5052"
       d="M 43.573328,236.03225 C 29.456213,211.4009 17.714408,189.89209 17.48045,188.2349 c -0.664024,-4.70346 17.047458,-9.4853 50.544384,-13.6462 45.112456,-5.60377 78.064166,-2.48324 119.372506,11.30454 58.66096,19.57967 111.6815,61.95538 143.40419,114.61319 l 10.09092,16.75033 -54.49872,15.42519 c -43.46846,12.30318 -55.22913,14.75583 -58.10753,12.11798 -1.98484,-1.81894 -8.27451,-7.69262 -13.97705,-13.05263 l -10.36826,-9.74549 7.9683,-10.58805 7.96829,-10.58803 -8.0469,-6.0559 -8.04691,-6.05591 -8.36716,9.98934 -8.36719,9.98934 -6.11143,-4.59931 -6.11142,-4.59931 10.86803,-44.13041 c 5.97743,-24.27173 10.67039,-45.53046 10.42881,-47.24161 -0.64772,-4.58802 -4.56327,1.26135 -28.0886,41.96115 l -20.9464,36.23814 -6.79369,0.24137 c -9.43963,0.33533 -10.17559,-0.75596 -8.18266,-12.13355 1.41057,-8.05282 0.77061,-10.74964 -3.27297,-13.79274 -9.49129,-7.14291 -18.65615,-1.01182 -18.37184,12.29037 0.14946,6.99316 0.004,7.19549 -5.92688,8.24798 -9.534279,1.69188 -31.93956,2.2892 -33.704521,0.89855 -0.87718,-0.69123 -13.145288,-21.40962 -27.262421,-46.04098 l 0,0 z"
       style="fill:#fff200;fill-opacity:1" /><path
       id="path5054"
       d="m 163.72319,337.16433 c 8.19515,-32.33264 9.54929,-34.45585 17.98501,-28.19936 3.16295,2.34573 3.18715,4.23557 0.11872,9.25124 -3.54517,5.795 -3.34578,6.68734 2.47277,11.06623 5.81856,4.37891 6.73122,4.32348 11.31828,-0.68742 2.74416,-2.99772 5.93346,-4.69513 7.08732,-3.77204 3.40505,2.72398 21.19847,23.60107 21.41354,25.12451 0.24584,1.74136 -65.38909,20.98812 -67.12312,19.68314 -0.69355,-0.52195 2.33383,-15.13178 6.72748,-32.4663 z"
       style="fill:#fff200;fill-opacity:1" /><path
       id="path5056"
       d="m 91.35741,321.05533 c -9.191543,-15.73128 -16.859942,-29.25245 -17.040867,-30.04702 -0.500637,-2.19871 32.325497,-4.59093 35.033337,-2.55308 1.30241,0.98016 1.48557,2.95465 0.40704,4.38777 -3.10657,4.12792 -0.48528,7.7132 7.06285,9.66024 7.32937,1.89064 11.90713,-1.54711 11.00582,-8.26503 -0.42937,-3.20016 0.54804,-3.98259 4.92402,-3.94176 12.28833,0.11463 12.16523,3.09766 -1.05632,25.59536 -6.82372,11.61118 -14.23218,24.51712 -16.46326,28.67988 -2.23108,4.16274 -4.75496,7.01005 -5.60861,6.32729 -0.85361,-0.68276 -9.07245,-14.11239 -18.26401,-29.84365 z"
       style="fill:#fff200;fill-opacity:1" /><path
       id="path5058"
       d="m 207.6426,625.6985 c -8.22659,-29.4334 -14.47325,-54.12595 -13.88146,-54.87238 0.59174,-0.74643 7.22618,-7.1583 14.74309,-14.24862 l 13.6671,-12.89149 7.89095,7.54564 c 7.33456,7.01361 8.29676,7.32492 13.64677,4.41521 4.20861,-2.28892 6.09671,-4.6718 7.02379,-8.86446 1.14179,-5.16361 0.31564,-6.31702 -8.305,-11.59472 -9.494,-5.81239 -9.54624,-5.91627 -6.33749,-12.59722 1.77949,-3.70508 3.65914,-7.29952 4.17698,-7.98762 0.51786,-0.68811 22.54525,4.26555 48.94977,11.00813 26.40451,6.74256 46.91318,11.04882 45.57481,9.56942 -1.33838,-1.47937 -19.69419,-12.4326 -40.79067,-24.34049 -45.60708,-25.74286 -43.13986,-24.02107 -41.30341,-28.8246 0.80939,-2.11706 1.93826,-5.64868 2.50858,-7.84807 0.79033,-3.04783 3.49596,-3.56814 11.37649,-2.18777 12.44371,2.17967 16.20739,0.23386 16.78854,-8.67964 0.54992,-8.4342 -2.51422,-10.76839 -14.92323,-11.36828 l -9.82875,-0.4751 0.1557,-10.3451 c 0.0856,-5.68979 -0.3314,-14.75864 -0.92672,-20.15297 l -1.08239,-9.80786 49.27489,-28.62923 c 27.10118,-15.74607 49.81986,-28.70616 50.48593,-28.8002 2.57559,-0.3636 11.27784,35.8914 13.55998,56.49312 6.13444,55.37778 -3.50446,107.33307 -29.18304,157.30134 -13.3914,26.05853 -45.10577,65.51382 -65.96341,82.06391 -19.85648,15.75571 -48.08079,33.25111 -50.42746,31.25848 -1.05215,-0.89325 -8.64371,-25.70611 -16.8703,-55.13948 z"
       style="fill:#37b55a;fill-opacity:1" /><path
       id="path5060"
       d="m 198.97121,444.79367 c 5.59276,-3.39928 20.10377,-11.86339 32.24671,-18.80915 l 22.07806,-12.62863 1.11637,14.50602 c 1.62179,21.07328 1.04512,22.94784 -6.90017,22.42981 -6.45114,-0.42062 -6.77629,-0.13482 -7.98942,7.02265 -1.26158,7.44326 1.63658,12.17842 6.33224,10.34591 4.34132,-1.69419 5.82552,1.30638 4.50369,9.10502 -1.5512,9.15197 -0.50219,9.38768 -26.67264,-5.99277 -10.80099,-6.34779 -23.06835,-13.39923 -27.26082,-15.66989 l -7.62268,-4.12848 10.16866,-6.18049 z"
       style="fill:#37b55a;fill-opacity:1" /><path
       id="path5062"
       d="m 180.61095,531.02835 c -5.23928,-18.28756 -9.2458,-33.71066 -8.90338,-34.27355 0.9628,-1.58295 64.50872,15.19889 64.77812,17.10723 0.13092,0.92724 -1.45639,3.93736 -3.52733,6.68916 -3.09602,4.11391 -4.72581,4.43976 -9.16864,1.83312 -4.69105,-2.75226 -6.14998,-2.33198 -11.06769,3.18843 -5.41373,6.07722 -5.41952,6.54291 -0.13049,10.5233 4.92277,3.70476 5.09046,4.75393 1.51836,9.50044 -5.33669,7.09123 -21.37194,20.90773 -22.82359,19.66553 -0.63218,-0.54093 -5.43608,-15.94609 -10.67536,-34.23366 l 0,0 z"
       style="fill:#37b55a;fill-opacity:1" /><path
       id="path5064"
       d="m -161.56475,509.74087 c -5.73977,-20.13721 -9.33869,-51.71385 -8.74265,-76.70761 1.89258,-79.36107 42.00638,-157.80979 105.996856,-207.29312 10.984311,-8.49409 40.218812,-26.38019 41.518818,-25.40184 0.43482,0.32724 7.871535,25.62454 16.5260147,56.21622 l 15.7354034,55.62123 -9.62773044,7.65658 C -5.4532958,324.04348 -11.841067,330.21994 -14.353072,333.55782 l -4.567291,6.06888 -8.694571,-7.29623 c -10.291473,-8.63629 -14.060671,-8.59707 -19.453755,0.20243 l -4.012021,6.5461 10.602979,7.13978 10.602979,7.13979 -4.811452,7.84647 -4.811451,7.84646 -33.407614,-8.39965 c -18.374163,-4.6198 -39.516371,-10.01844 -46.982651,-11.99698 -13.52353,-3.58364 -19.94054,-2.7858 -10.94108,1.36034 2.60268,1.19909 19.40283,10.63094 37.333662,20.95969 17.930818,10.32873 35.006571,20.0184 37.9461,21.53263 4.641298,2.39081 5.01049,3.95645 2.805199,11.89824 l -2.53939,9.14513 -10.247248,-2.95039 c -8.626359,-2.4837 -10.830382,-2.17549 -13.933963,1.94845 -3.436003,4.56566 -3.483788,14.42676 -0.08228,16.98665 0.822345,0.61888 5.693215,1.09813 10.824176,1.065 11.031616,-0.0712 13.420861,1.28839 11.574799,6.58663 -0.752542,2.15982 -0.507691,10.66713 0.544123,18.90513 l 1.91236,14.97816 -29.124268,16.94215 c -16.01834,9.31816 -38.38949,22.39646 -49.71363,29.06291 -11.32417,6.66643 -21.13378,11.71107 -21.79915,11.21034 -0.66536,-0.50074 -3.47167,-8.84601 -6.23623,-18.54506 z"
       style="fill:#00a3b3;fill-opacity:1" /><path
       id="path5066"
       d="m -33.838413,366.92518 c 0.921653,-1.25365 2.535321,-4.41017 3.585163,-7.01506 1.650117,-4.09425 2.788567,-4.1972 8.399527,-0.75973 6.007135,3.6802 6.845532,3.50494 11.253653,-2.35244 4.4017401,-5.8489 4.3397475,-6.71593 -0.817542,-11.43229 -5.551151,-5.07658 -5.544343,-5.13846 1.296713,-11.76991 3.7824722,-3.66658 9.97399373,-9.14746 13.7589338,-12.17977 6.1162393,-4.89999 7.0392802,-4.99298 8.2981152,-0.83601 2.885154,9.52728 17.771886,61.79762 18.245172,64.06245 0.392512,1.87827 -61.355497,-12.1717 -64.762797,-14.73594 -0.51331,-0.38631 -0.17894,-1.72791 0.743062,-2.9813 z"
       style="fill:#00a3b3;fill-opacity:1" /><path
       id="path5068"
       d="m -52.842167,451.01591 c -0.349828,-9.0986 -0.121085,-17.2272 0.508337,-18.06356 0.62941,-0.83634 3.160556,-0.81238 5.624748,0.0532 5.583934,1.96155 9.511379,-2.97166 9.206132,-11.56372 -0.222614,-6.26634 -0.529099,-6.56824 -7.103672,-6.9969 -6.753298,-0.4403 -6.838932,-0.57234 -4.998767,-7.7061 1.029729,-3.99198 2.531728,-7.35123 3.337776,-7.46502 1.392026,-0.19654 58.873121,31.6109 58.825177,32.55118 -0.0522,1.02329 -59.780165,34.97787 -62.164091,35.33947 -1.429776,0.21689 -2.885811,-7.04998 -3.23564,-16.14858 z"
       style="fill:#00a3b3;fill-opacity:1" /><path
       id="path5070"
       d="m -96.488054,627.99679 c -24.156626,-26.59448 -47.052816,-62.55712 -40.918936,-64.27067 4.33866,-1.21205 106.709203,-30.5597 107.815975,-30.90875 0.45067,-0.14214 6.551986,6.04276 13.55846,13.74424 7.0064749,7.70147 13.0559959,14.24121 13.4434161,14.53277 0.3874028,0.29155 -2.5973538,4.9173 -6.6327804,10.27946 -6.7072697,8.91242 -7.0197697,10.14202 -3.6402787,14.32333 2.033272,2.51568 6.0509759,4.93879 8.9281907,5.38468 4.57813601,0.7095 5.8981913,-0.38572 10.5718826,-8.77126 l 5.3405207,-9.58198 7.584944,4.32673 c 4.1717,2.37971 7.74107,5.23359 7.931915,6.34196 0.190857,1.10835 -4.715432,21.78502 -10.902837,45.94816 -12.0612377,47.10185 -13.2299304,55.02845 -6.202251,42.06685 2.399453,-4.4255 13.394279,-23.93895 24.432905,-43.36322 l 20.070265,-35.31689 8.313863,2.11729 c 4.572612,1.16451 8.334619,2.46829 8.359991,2.89728 0.02539,0.42901 -0.830541,5.65392 -1.902071,11.61091 -1.750935,9.73411 -1.365362,11.0768 3.807589,13.25927 11.042575,4.65887 19.045801,0.51877 16.854355,-8.71883 -2.688847,-11.33428 -0.193142,-14.13809 13.270466,-14.90887 7.05015,-0.4036 15.97237,-1.14604 19.82714,-1.64983 l 7.00869,-0.91602 29.60258,50.84638 29.60259,50.84641 -15.44566,4.23565 C 114.23521,718.794 53.213601,714.97069 -5.0674734,691.12029 -31.651842,680.24115 -78.272073,648.05112 -96.488054,627.99679 z"
       style="fill:#f9a23e;fill-opacity:1" /><path
       id="path5072"
       d="m 58.557929,586.57729 c 0.905639,-1.2657 8.425482,-14.40646 16.710947,-29.20157 8.285452,-14.79508 15.412041,-26.99117 15.836829,-27.10241 0.42482,-0.11123 8.914485,13.78464 18.865905,30.8797 20.30118,34.87438 20.58563,32.90527 -4.84426,33.53536 l -14.238622,0.35282 1.06408,-6.48958 c 1.217083,-7.42272 1.068139,-7.62897 -6.380692,-8.83592 -8.175483,-1.32467 -10.99675,0.43952 -11.434268,7.15014 -0.367984,5.6438 -0.862624,5.94549 -7.815711,4.76699 -8.997106,-1.52495 -9.879197,-2.09933 -7.764208,-5.05553 z"
       style="fill:#f9a23e;fill-opacity:1" /><path
       id="path5074"
       d="m -16.059143,541.88203 c -3.966393,-4.562 -6.636165,-9.05916 -5.932829,-9.99373 1.907329,-2.53441 66.91842,-20.27076 67.192214,-18.33141 0.129517,0.91741 -3.377825,16.12682 -7.794096,33.79867 l -8.029583,32.13064 -7.036805,-5.29572 c -6.644024,-5.00013 -6.804338,-5.60462 -2.872117,-10.82964 3.980392,-5.28903 3.84592,-5.73494 -3.038619,-10.07588 -6.243956,-3.93706 -7.6564122,-3.93989 -10.6054211,-0.0213 -2.8262973,3.7555 -4.3557885,3.8768 -9.0366214,0.71677 -3.0989032,-2.09221 -8.8797165,-7.5364 -12.8461225,-12.09837 z"
       style="fill:#f9a23e;fill-opacity:1" /><g
       transform="matrix(1.1934356,-0.8602262,0.8602262,1.1934356,4.1884648,287.18265)"
       id="g6195"><g
         transform="matrix(1.740745,1.3100418,-1.3100418,1.740745,86.800038,-545.84761)"
         id="layer1-7"
         inkscape:label="Layer 1"><path
           sodipodi:nodetypes="ccccc"
           id="path5478"
           d="m 137,207.36218 15,-30 15,30 -15,-10 -15,10 z"
           style="fill:#ff0000;fill-opacity:1;fill-rule:evenodd;stroke:#000000;stroke-width:2;stroke-linecap:round;stroke-linejoin:round;stroke-miterlimit:4;stroke-opacity:1;stroke-dasharray:none" /></g><path
         style="fill:#ff0000;fill-opacity:1"
         d="m 66.56052,-8.1629149 c 1.017756,-1.352364 46.96349,-23.9117121 47.64914,-23.3957131 0.68564,0.515999 -8.27251,50.911286 -9.29027,52.26365 -0.30087,0.39979 -2.33252,-4.74218 -4.51479,-11.4266126 -2.182274,-6.6844323 -5.063399,-12.9780573 -6.402502,-13.9858331 -1.33912,-1.007789 -8.184356,-2.0339832 -15.211673,-2.2804582 -7.027317,-0.246475 -12.530777,-0.775243 -12.229905,-1.175033 z"
         id="path6193" /></g><text
       inkscape:transform-center-y="-12.757046"
       inkscape:transform-center-x="-4.8297612"
       sodipodi:linespacing="125%"
       transform="matrix(0.99947334,0.03245051,-0.03245051,0.99947334,0,0)"
       id="text6200"
       y="107.13752"
       x="35.327438"
       style="font-size:87.1449585px;font-style:normal;font-weight:normal;line-height:125%;fill:#000000;fill-opacity:1;stroke:none;font-family:Bitstream Vera Sans"
       xml:space="preserve"><tspan
         style="font-size:87.1449585px;font-style:normal;font-variant:normal;font-weight:bold;font-stretch:normal;text-align:start;line-height:125%;writing-mode:lr-tb;text-anchor:start;fill:#ff0000;fill-opacity:1;font-family:Bitstream Vera Sans;-inkscape-font-specification:Bitstream Vera Sans Bold"
         y="107.13752"
         x="35.327438"
         id="tspan6202"
         sodipodi:role="line">7m</tspan></text>
</g></g></svg>